# xmcd
#
# Track frame offsets: 
#        150
#        13032
#        26659
#        37875
#        51713
#        66016
#        80482
#        94910
#        108440
#        121147
#        134806
#        146611
#        158765
#        173151
#        186916
#        201180
#        216190
#        230922
#        243345
#        257049
#        271075
#        285826
#        298959
#
# Disc length: 4130 seconds
#
# Revision: 0
# Processed by: cddbd v1.5.2PL0 Copyright (c) Steve Scherf et al.
# Submitted via: ExactAudioCopy v1.3
#
DISCID=5d102017
DTITLE=Pedro Infante - Historia Musical Vol-1
DYEAR=1900
DGENRE=Country
TTITLE0=El Durazno
TTITLE1=Soldado Raso
TTITLE2=Asi es la vida
TTITLE3=Dulce Patria
TTITLE4=Rosalia
TTITLE5=Mañana
TTITLE6=Ventanita de oro
TTITLE7=El azotón
TTITLE8=Mi patria es lo primero
TTITLE9=Cuando quiere un mexicano
TTITLE10=El sueño
TTITLE11=Noche plateada
TTITLE12=Mi changuita
TTITLE13=Amores de ayer
TTITLE14=Deja
TTITLE15=Me dices que te vas
TTITLE16=Ven junto a mi
TTITLE17=Mexicano hasta las cachas
TTITLE18=Siempre borracho
TTITLE19=Cielito lindo
TTITLE20=Alla en el racho grande
TTITLE21=Tu felicidad
TTITLE22=Mi tragedia
EXTD=
EXTT0=
EXTT1=
EXTT2=
EXTT3=
EXTT4=
EXTT5=
EXTT6=
EXTT7=
EXTT8=
EXTT9=
EXTT10=
EXTT11=
EXTT12=
EXTT13=
EXTT14=
EXTT15=
EXTT16=
EXTT17=
EXTT18=
EXTT19=
EXTT20=
EXTT21=
EXTT22=
PLAYORDER=
